# xmcd
#
# Track frame offsets:
#	183
#	11268
#	20830
#	38545
#	53685
#	64898
#	76183
#	92940
#	107053
#	121140
#	135195
#	147113
#	157635
#	170800
#	180265
#	188048
#	199825
#	214090
#	228710
#	243253
#	254640
#	264333
#	277243
#	287275
#	300478
#	311273
#	324093
#
# Disc length: 4491 seconds
#
# Revision: 1
# Processed by: cddbd v1.5.2PL0 Copyright (c) Steve Scherf et al.
# Submitted via: audiograbber 1.83.01
#
DISCID=6311891b
DTITLE=Phil Kelsall - Strictly for Dancing - Technics GA3
DYEAR=1900
DGENRE=
TTITLE0=Zing Went the Strings of My Heart/A Shine on Your Shoes
TTITLE1=My Babyjsut Cares for Me/Wrap Your Troubles in Dreams
TTITLE2=Lonely Ballerina/Try to Remember
TTITLE3=Tenderly/I'll Follow My Secret Heart
TTITLE4=Don't Blame Me/Nearness of You
TTITLE5=There's a Small Hotel/You Took Advantage of Me
TTITLE6=The History of Love
TTITLE7=I Wish You Love/From Here to Etenity
TTITLE8=There's a Kind of Hush/Till
TTITLE9=A Room with a View/Mad Dogs and Englishmen
TTITLE10=The Parrot
TTITLE11=Maria from Bahia/La Cucuracha
TTITLE12=Lover/Love's Roundabout/Baubles, Bangles and Beads
TTITLE13=Fly Me to the Moon/Days of Wine and Roses
TTITLE14=On Days Like These/Shadow of Your Smile
TTITLE15=By the Fireside/Just One More Chance
TTITLE16=Cecilia/I'm Always Chasing Rainbows
TTITLE17=Blaze Away
TTITLE18=76 Trombones/Here We Are, Here We Are, Here We Are Again
TTITLE19=Dollar Princess
TTITLE20=Comrades/She Was One of the Early Birds
TTITLE21=Where the Cafe Lights Are Gleaming at the Cafe Continental
TTITLE22=Softly as in a Morning Sunrise/No Other Love
TTITLE23=Ukelele Lady/Love Is Just Around the Corner
TTITLE24=Pretty Baby/Hineysuckle and the Bee
TTITLE25=That Certain Party/Banjo Bobby How You Gonna Keep 'Em Down on the Farm
TTITLE26=On the Crest of a Wave/Row, Row, Row, Music, Music, Music
EXTD=
EXTT0=
EXTT1=
EXTT2=
EXTT3=
EXTT4=
EXTT5=
EXTT6=
EXTT7=
EXTT8=
EXTT9=
EXTT10=
EXTT11=
EXTT12=
EXTT13=
EXTT14=
EXTT15=
EXTT16=
EXTT17=
EXTT18=
EXTT19=
EXTT20=
EXTT21=
EXTT22=
EXTT23=
EXTT24=
EXTT25=
EXTT26=
PLAYORDER=
